<mxfile host="app.diagrams.net" modified="2024-06-19T01:38:31.329Z" agent="Mozilla/5.0 (Windows NT 10.0; Win64; x64) AppleWebKit/537.36 (KHTML, like Gecko) Chrome/126.0.0.0 Safari/537.36" etag="W70swrST5tjqVKAeXPYr" version="24.5.5" type="github">
  <diagram name="第 1 页" id="b-fAZNs-gfoxFwY4Zdgy">
    <mxGraphModel dx="2257" dy="757" grid="1" gridSize="10" guides="1" tooltips="1" connect="1" arrows="1" fold="1" page="1" pageScale="1" pageWidth="827" pageHeight="1169" math="0" shadow="0">
      <root>
        <mxCell id="0" />
        <mxCell id="1" parent="0" />
        <mxCell id="OUmBvAej1RCyq06BOFWp-3" style="edgeStyle=orthogonalEdgeStyle;rounded=0;orthogonalLoop=1;jettySize=auto;html=1;" edge="1" parent="1" source="OUmBvAej1RCyq06BOFWp-1" target="OUmBvAej1RCyq06BOFWp-2">
          <mxGeometry relative="1" as="geometry" />
        </mxCell>
        <mxCell id="OUmBvAej1RCyq06BOFWp-1" value="表单任务-脚本" style="rounded=0;whiteSpace=wrap;html=1;" vertex="1" parent="1">
          <mxGeometry x="-140" y="330" width="120" height="60" as="geometry" />
        </mxCell>
        <mxCell id="OUmBvAej1RCyq06BOFWp-21" style="edgeStyle=orthogonalEdgeStyle;rounded=0;orthogonalLoop=1;jettySize=auto;html=1;" edge="1" parent="1" source="OUmBvAej1RCyq06BOFWp-2" target="OUmBvAej1RCyq06BOFWp-20">
          <mxGeometry relative="1" as="geometry" />
        </mxCell>
        <mxCell id="OUmBvAej1RCyq06BOFWp-2" value="Script（含密码）" style="rounded=0;whiteSpace=wrap;html=1;" vertex="1" parent="1">
          <mxGeometry x="90" y="330" width="100" height="60" as="geometry" />
        </mxCell>
        <mxCell id="OUmBvAej1RCyq06BOFWp-8" style="edgeStyle=orthogonalEdgeStyle;rounded=0;orthogonalLoop=1;jettySize=auto;html=1;" edge="1" parent="1" source="OUmBvAej1RCyq06BOFWp-4" target="OUmBvAej1RCyq06BOFWp-7">
          <mxGeometry relative="1" as="geometry" />
        </mxCell>
        <mxCell id="OUmBvAej1RCyq06BOFWp-10" style="edgeStyle=orthogonalEdgeStyle;rounded=0;orthogonalLoop=1;jettySize=auto;html=1;exitX=1;exitY=0;exitDx=0;exitDy=0;" edge="1" parent="1" source="OUmBvAej1RCyq06BOFWp-4">
          <mxGeometry relative="1" as="geometry">
            <mxPoint x="617.2857142857142" y="330.1428571428571" as="targetPoint" />
          </mxGeometry>
        </mxCell>
        <mxCell id="OUmBvAej1RCyq06BOFWp-13" style="edgeStyle=orthogonalEdgeStyle;rounded=0;orthogonalLoop=1;jettySize=auto;html=1;" edge="1" parent="1" source="OUmBvAej1RCyq06BOFWp-4" target="OUmBvAej1RCyq06BOFWp-11">
          <mxGeometry relative="1" as="geometry" />
        </mxCell>
        <mxCell id="OUmBvAej1RCyq06BOFWp-4" value="Script（加密）" style="rounded=0;whiteSpace=wrap;html=1;" vertex="1" parent="1">
          <mxGeometry x="517" y="330" width="100" height="60" as="geometry" />
        </mxCell>
        <mxCell id="OUmBvAej1RCyq06BOFWp-7" value="前端界面" style="rounded=0;whiteSpace=wrap;html=1;" vertex="1" parent="1">
          <mxGeometry x="357" y="160" width="420" height="30" as="geometry" />
        </mxCell>
        <mxCell id="OUmBvAej1RCyq06BOFWp-9" value="展示" style="text;html=1;align=center;verticalAlign=middle;resizable=0;points=[];autosize=1;strokeColor=none;fillColor=none;" vertex="1" parent="1">
          <mxGeometry x="567" y="238" width="50" height="30" as="geometry" />
        </mxCell>
        <mxCell id="OUmBvAej1RCyq06BOFWp-17" style="edgeStyle=orthogonalEdgeStyle;rounded=0;orthogonalLoop=1;jettySize=auto;html=1;" edge="1" parent="1" source="OUmBvAej1RCyq06BOFWp-11" target="OUmBvAej1RCyq06BOFWp-15">
          <mxGeometry relative="1" as="geometry" />
        </mxCell>
        <mxCell id="OUmBvAej1RCyq06BOFWp-24" style="edgeStyle=orthogonalEdgeStyle;rounded=0;orthogonalLoop=1;jettySize=auto;html=1;" edge="1" parent="1" source="OUmBvAej1RCyq06BOFWp-11" target="OUmBvAej1RCyq06BOFWp-23">
          <mxGeometry relative="1" as="geometry" />
        </mxCell>
        <mxCell id="OUmBvAej1RCyq06BOFWp-11" value="密码是否为***" style="rhombus;whiteSpace=wrap;html=1;rounded=0;" vertex="1" parent="1">
          <mxGeometry x="482" y="470" width="170" height="40" as="geometry" />
        </mxCell>
        <mxCell id="OUmBvAej1RCyq06BOFWp-14" value="不予修改" style="rounded=0;whiteSpace=wrap;html=1;" vertex="1" parent="1">
          <mxGeometry x="517" y="630" width="100" height="30" as="geometry" />
        </mxCell>
        <mxCell id="OUmBvAej1RCyq06BOFWp-15" value="修改保存" style="rounded=0;whiteSpace=wrap;html=1;" vertex="1" parent="1">
          <mxGeometry x="740" y="630" width="100" height="30" as="geometry" />
        </mxCell>
        <mxCell id="OUmBvAej1RCyq06BOFWp-18" value="是" style="text;html=1;align=center;verticalAlign=middle;resizable=0;points=[];autosize=1;strokeColor=none;fillColor=none;" vertex="1" parent="1">
          <mxGeometry x="577" y="510" width="40" height="30" as="geometry" />
        </mxCell>
        <mxCell id="OUmBvAej1RCyq06BOFWp-19" value="否" style="text;html=1;align=center;verticalAlign=middle;resizable=0;points=[];autosize=1;strokeColor=none;fillColor=none;" vertex="1" parent="1">
          <mxGeometry x="687" y="460" width="40" height="30" as="geometry" />
        </mxCell>
        <mxCell id="OUmBvAej1RCyq06BOFWp-22" style="edgeStyle=orthogonalEdgeStyle;rounded=0;orthogonalLoop=1;jettySize=auto;html=1;" edge="1" parent="1" source="OUmBvAej1RCyq06BOFWp-20" target="OUmBvAej1RCyq06BOFWp-4">
          <mxGeometry relative="1" as="geometry" />
        </mxCell>
        <mxCell id="OUmBvAej1RCyq06BOFWp-20" value="&lt;span style=&quot;color: rgb(31, 31, 31); font-family: system-ui, sans-serif; text-align: start; background-color: rgb(255, 255, 255);&quot;&gt;query-detail(回显加密)&lt;/span&gt;" style="rounded=1;whiteSpace=wrap;html=1;" vertex="1" parent="1">
          <mxGeometry x="270" y="340" width="150" height="40" as="geometry" />
        </mxCell>
        <mxCell id="OUmBvAej1RCyq06BOFWp-25" style="edgeStyle=orthogonalEdgeStyle;rounded=0;orthogonalLoop=1;jettySize=auto;html=1;" edge="1" parent="1" source="OUmBvAej1RCyq06BOFWp-23" target="OUmBvAej1RCyq06BOFWp-14">
          <mxGeometry relative="1" as="geometry" />
        </mxCell>
        <mxCell id="OUmBvAej1RCyq06BOFWp-26" style="edgeStyle=orthogonalEdgeStyle;rounded=0;orthogonalLoop=1;jettySize=auto;html=1;" edge="1" parent="1" source="OUmBvAej1RCyq06BOFWp-23" target="OUmBvAej1RCyq06BOFWp-15">
          <mxGeometry relative="1" as="geometry" />
        </mxCell>
        <mxCell id="OUmBvAej1RCyq06BOFWp-27" value="否" style="edgeLabel;html=1;align=center;verticalAlign=middle;resizable=0;points=[];" vertex="1" connectable="0" parent="OUmBvAej1RCyq06BOFWp-26">
          <mxGeometry x="-0.5923" relative="1" as="geometry">
            <mxPoint as="offset" />
          </mxGeometry>
        </mxCell>
        <mxCell id="OUmBvAej1RCyq06BOFWp-23" value="其他内容是否相同" style="rhombus;whiteSpace=wrap;html=1;rounded=0;" vertex="1" parent="1">
          <mxGeometry x="482" y="544" width="170" height="40" as="geometry" />
        </mxCell>
      </root>
    </mxGraphModel>
  </diagram>
</mxfile>
